<?xml version="1.0" standalone="no"?>
<!DOCTYPE svg PUBLIC "-//W3C//DTD SVG 20010904//EN"
 "http://www.w3.org/TR/2001/REC-SVG-20010904/DTD/svg10.dtd">
<svg version="1.0" xmlns="http://www.w3.org/2000/svg"
 width="100.000000pt" height="100.000000pt" viewBox="0 0 100.000000 100.000000"
 preserveAspectRatio="xMidYMid meet">

<g transform="translate(0.000000,100.000000) scale(0.100000,-0.100000)"
fill="#000000" stroke="none">
<path d="M104 815 l-25 -25 3 -255 3 -255 -28 0 c-34 0 -43 -21 -27 -61 25
-58 30 -59 470 -59 440 0 445 1 470 59 16 40 7 61 -27 61 l-28 0 3 255 3 255
-25 25 -25 25 -371 0 -371 0 -25 -25z m764 -27 c17 -17 17 -479 0 -496 -17
-17 -719 -17 -736 0 -17 17 -17 479 0 496 17 17 719 17 736 0z m62 -558 c0
-26 -52 -30 -430 -30 -378 0 -430 4 -430 30 0 6 160 10 430 10 270 0 430 -4
430 -10z"/>
<path d="M516 691 c-3 -5 -20 -73 -37 -151 -22 -102 -28 -145 -20 -153 7 -7
14 -8 21 -1 13 13 73 292 65 304 -8 12 -22 13 -29 1z"/>
<path d="M315 594 c-19 -26 -35 -50 -35 -54 0 -12 70 -100 80 -100 22 0 20 24
-5 61 l-28 39 28 39 c25 37 27 61 5 61 -5 0 -25 -21 -45 -46z"/>
<path d="M625 629 c-4 -5 5 -28 20 -50 l28 -39 -28 -39 c-25 -37 -27 -61 -5
-61 10 0 80 88 80 100 0 12 -70 100 -80 100 -5 0 -12 -5 -15 -11z"/>
</g>
</svg>
