<?xml version="1.0" standalone="no"?>
<!DOCTYPE svg PUBLIC "-//W3C//DTD SVG 20010904//EN"
 "http://www.w3.org/TR/2001/REC-SVG-20010904/DTD/svg10.dtd">
<svg version="1.0" xmlns="http://www.w3.org/2000/svg"
 width="100.000000pt" height="100.000000pt" viewBox="0 0 100.000000 100.000000"
 preserveAspectRatio="xMidYMid meet">

<g transform="translate(0.000000,100.000000) scale(0.100000,-0.100000)"
fill="#fff" stroke="none">
<path d="M131 906 c-49 -27 -50 -37 -51 -404 0 -372 2 -386 55 -410 41 -19
697 -17 734 2 49 26 51 41 51 406 0 365 -2 380 -51 406 -39 20 -702 20 -738 0z
m729 -46 c19 -19 20 -33 20 -360 0 -327 -1 -341 -20 -360 -19 -19 -33 -20
-360 -20 -327 0 -341 1 -360 20 -19 19 -20 33 -20 360 0 327 1 341 20 360 19
19 33 20 360 20 327 0 341 -1 360 -20z"/>
<path d="M245 689 c-16 -25 21 -29 261 -27 213 3 249 5 249 18 0 13 -36 15
-252 18 -175 2 -254 -1 -258 -9z"/>
<path d="M245 509 c-16 -25 21 -29 261 -27 213 3 249 5 249 18 0 13 -36 15
-252 18 -175 2 -254 -1 -258 -9z"/>
<path d="M245 329 c-16 -25 21 -29 261 -27 213 3 249 5 249 18 0 13 -36 15
-252 18 -175 2 -254 -1 -258 -9z"/>
</g>
</svg>
