<?xml version="1.0" standalone="no"?>
<!DOCTYPE svg PUBLIC "-//W3C//DTD SVG 20010904//EN"
 "http://www.w3.org/TR/2001/REC-SVG-20010904/DTD/svg10.dtd">
<svg version="1.0" xmlns="http://www.w3.org/2000/svg"
 width="100.000000pt" height="100.000000pt" viewBox="0 0 100.000000 100.000000"
 preserveAspectRatio="xMidYMid meet">

<g transform="translate(0.000000,100.000000) scale(0.100000,-0.100000)"
fill="#fff" stroke="none">
<path d="M386 944 c-225 -54 -376 -286 -338 -517 62 -367 512 -513 773 -252
329 330 18 879 -435 769z m219 -39 c312 -81 418 -473 191 -701 -241 -240 -651
-107 -709 230 -50 295 226 546 518 471z"/>
<path d="M411 591 l61 -88 -61 -92 c-59 -88 -61 -91 -36 -91 20 0 34 14 71 70
26 39 48 70 50 70 2 0 25 -31 50 -70 36 -54 52 -70 70 -70 13 0 24 2 24 5 0 3
-25 43 -57 90 l-56 85 62 90 c60 87 61 90 37 90 -21 0 -35 -14 -72 -70 -26
-38 -50 -70 -53 -70 -3 0 -26 32 -51 70 -38 59 -49 70 -73 70 l-28 0 62 -89z"/>
</g>
</svg>
