<?xml version="1.0" standalone="no"?>
<!DOCTYPE svg PUBLIC "-//W3C//DTD SVG 20010904//EN"
 "http://www.w3.org/TR/2001/REC-SVG-20010904/DTD/svg10.dtd">
<svg version="1.0" xmlns="http://www.w3.org/2000/svg"
 width="100.000000pt" height="100.000000pt" viewBox="0 0 100.000000 100.000000"
 preserveAspectRatio="xMidYMid meet">

<g transform="translate(0.000000,100.000000) scale(0.100000,-0.100000)"
fill="#000000" stroke="none">
<path d="M60 880 c-19 -19 -20 -33 -20 -320 0 -287 1 -301 20 -320 18 -18 33
-20 180 -20 l160 0 0 -30 c0 -27 -3 -30 -30 -30 -38 0 -70 -32 -70 -70 l0 -30
200 0 200 0 0 30 c0 38 -32 70 -70 70 -27 0 -30 3 -30 30 l0 30 160 0 c147 0
162 2 180 20 19 19 20 33 20 320 0 287 -1 301 -20 320 -19 19 -33 20 -440 20
-407 0 -421 -1 -440 -20z m855 -320 l0 -295 -415 0 -415 0 -3 285 c-1 157 0
290 3 297 3 11 90 13 417 11 l413 -3 0 -295z m-355 -370 l0 -30 -60 0 -60 0 0
30 0 30 60 0 60 0 0 -30z m95 -80 c4 -7 -50 -10 -155 -10 -105 0 -159 3 -155
10 4 6 67 10 155 10 88 0 151 -4 155 -10z"/>
<path d="M152 728 c-17 -17 -17 -299 0 -316 16 -16 160 -16 176 0 17 17 17
299 0 316 -7 7 -42 12 -88 12 -46 0 -81 -5 -88 -12z m148 -158 l0 -130 -60 0
-60 0 0 130 0 130 60 0 60 0 0 -130z"/>
<path d="M224 489 c-10 -17 13 -36 27 -22 12 12 4 33 -11 33 -5 0 -12 -5 -16
-11z"/>
<path d="M432 728 c-17 -17 -17 -299 0 -316 17 -17 399 -17 416 0 17 17 17
299 0 316 -17 17 -399 17 -416 0z m388 -158 l0 -130 -180 0 -180 0 0 130 0
130 180 0 180 0 0 -130z"/>
<path d="M624 489 c-10 -17 13 -36 27 -22 12 12 4 33 -11 33 -5 0 -12 -5 -16
-11z"/>
<path d="M484 309 c-10 -17 13 -36 27 -22 12 12 4 33 -11 33 -5 0 -12 -5 -16
-11z"/>
</g>
</svg>
